<?xml version="1.0" encoding="UTF-8" standalone="no"?>
<!-- Created with Inkscape (http://www.inkscape.org/) -->

<svg
   version="1.1"
   id="svg1"
   width="512"
   height="512"
   viewBox="0 0 512 511.99997"
   sodipodi:docname="logo.svg"
   inkscape:export-filename="logo.svg"
   inkscape:export-xdpi="96"
   inkscape:export-ydpi="96"
   inkscape:version="1.4.2 (ebf0e940d0, 2025-05-08)"
   xmlns:inkscape="http://www.inkscape.org/namespaces/inkscape"
   xmlns:sodipodi="http://sodipodi.sourceforge.net/DTD/sodipodi-0.dtd"
   xmlns="http://www.w3.org/2000/svg"
   xmlns:svg="http://www.w3.org/2000/svg">
  <sodipodi:namedview
     id="namedview1"
     pagecolor="#ffffff"
     bordercolor="#000000"
     borderopacity="0.25"
     inkscape:showpageshadow="2"
     inkscape:pageopacity="0.0"
     inkscape:pagecheckerboard="0"
     inkscape:deskcolor="#d1d1d1"
     inkscape:zoom="0.68500969"
     inkscape:cx="255.47084"
     inkscape:cy="255.47084"
     inkscape:window-width="1366"
     inkscape:window-height="699"
     inkscape:window-x="1920"
     inkscape:window-y="32"
     inkscape:window-maximized="1"
     inkscape:current-layer="svg1" />
  <defs
     id="defs1">
    <linearGradient
       id="swatch73">
      <stop
         style="stop-color:#000000;stop-opacity:1;"
         offset="0"
         id="stop73" />
    </linearGradient>
  </defs>
  <path
     d="m 321.01354,38.446675 c 10.16,15.829042 16.66,32.80479 19.5,50.927255 8.052,34.85971 0.719,67.11364 -22,96.7618 a 2520.4101,2139.2929 0 0 1 -51,57.71756 c -12.497,14.42344 -21.83,30.26776 -28,47.53211 -7.009,24.83468 -5.009,49.16602 6,72.99573 8.827,19.23183 19.994,37.339 33.5,54.32241 -24.153,-3.67952 -44.653,-13.29881 -61.5,-28.85878 -28.54,-28.69157 -39.874,-61.79428 -34,-99.30816 3.083,-20.58225 10.75,-39.82172 23,-57.71756 a 370.345,314.34427 0 0 1 26,-32.25393 775.27002,658.03962 0 0 0 57,-63.65907 c 21.102,-30.33312 31.60199,-63.152351 31.5,-98.459365 z"
     style="opacity:0.972;fill:#000000;fill-opacity:1;stroke-width:0.921294"
     id="path1" />
  <path
     style="opacity:1;fill:#000000;fill-opacity:1;stroke-width:0.363277;stroke-dasharray:none"
     d="m 82.190676,501.95328 c -0.367533,-0.30314 -0.480149,-8.77275 -0.480149,-36.1111 0,-19.64329 0.109292,-35.94999 0.242871,-36.23711 0.134208,-0.28848 0.702524,-0.52203 1.270241,-0.52203 0.7946,0 2.711337,1.36708 8.459818,6.03386 4.087847,3.31863 8.962923,7.04109 10.833503,8.27215 10.1355,6.67032 22.67534,11.22887 37.44595,13.61256 5.74984,0.92792 71.88584,1.2774 166.81715,0.88152 80.15727,-0.33426 82.95472,-0.36655 86.83384,-1.00194 11.17973,-1.83126 21.53614,-5.05244 30.10368,-9.36321 4.61925,-2.32419 8.81218,-5.24494 17.16382,-11.95616 8.1561,-6.55409 9.25497,-7.1877 10.12915,-5.84042 0.57605,0.88779 0.57605,71.10175 0,71.98956 -0.40859,0.62971 -2.90788,0.63836 -184.37696,0.63836 -142.54866,0 -184.070858,-0.0891 -184.442914,-0.39604 z m 320.026914,-42.8535 c 4.66751,-1.05407 15.08834,-4.47389 14.67405,-4.8156 -0.0851,-0.0702 -1.21763,0.26483 -2.51685,0.7444 -1.29922,0.47957 -5.51319,1.73648 -9.36438,2.79313 -7.03976,1.9315 -8.35842,2.53496 -2.79282,1.27807 z M 125.324,457.16431 c -2.97092,-0.87171 -5.76178,-1.69157 -6.20192,-1.82191 l -0.80024,-0.23697 0.80024,0.42082 c 1.01342,0.5329 10.20026,3.22427 11.0034,3.22354 0.3301,-3e-4 -1.83056,-0.71376 -4.80148,-1.58548 z m 298.49222,-5.82759 c 0,-0.0908 -0.36011,-0.006 -0.80024,0.18824 -0.44014,0.19429 -0.80025,0.42751 -0.80025,0.51826 0,0.0908 0.36011,0.006 0.80025,-0.18823 0.44013,-0.19429 0.80024,-0.42751 0.80024,-0.51827 z m -323.68566,-5.35457 c -0.982411,-0.67253 -3.212116,-2.26236 -4.954896,-3.53297 -4.021606,-2.93203 -6.288659,-4.34584 -3.662108,-2.28381 2.335503,1.83353 9.910554,7.06863 10.203154,7.05136 0.11003,-0.007 -0.60373,-0.56205 -1.58615,-1.23458 z"
     id="path60" />
  <path
     d="m 203.46314,59.268347 c 7.83754,13.700092 12.97026,28.457399 15.39816,44.271923 6.59764,30.38213 1.69685,58.71088 -14.70309,84.98627 a 1872.1527,1876.6783 88.866752 0 1 -36.96781,51.25135 c -9.05371,12.8039 -15.72741,26.80442 -20.02184,42.00083 -4.78798,21.83245 -2.87796,43.09184 5.73009,63.77966 6.9041,16.69701 15.53073,32.37553 25.87918,47.03637 -18.04431,-2.86374 -33.47195,-10.97829 -46.28296,-24.34448 -21.74311,-24.68357 -30.75361,-53.48007 -27.03001,-86.38955 1.93891,-18.05395 7.31357,-35.00055 16.1233,-50.83901 a 275.09111,275.75608 88.866752 0 1 18.79737,-28.60365 575.86814,577.26018 88.866752 0 0 41.33166,-56.53825 c 15.1843,-26.85089 22.43297,-55.720891 21.74595,-86.611463 z"
     style="opacity:0.972;fill:#000000;fill-opacity:1;stroke-width:0.743692"
     id="path2" />
  <path
     d="m 434.47098,74.662625 c 5.34552,14.85075 7.84399,30.274135 7.49536,46.270145 1.23427,31.06572 -8.50025,58.11706 -29.20432,81.15389 a 1876.6783,1872.1527 8.8433741 0 1 -45.28791,44.07181 c -11.13503,11.04178 -20.13334,23.67439 -26.99556,37.89701 -8.49799,20.67282 -10.29995,41.94164 -5.40615,63.80795 3.907,17.64063 9.68694,34.5766 17.33896,50.80857 -17.27532,-5.94653 -31.06386,-16.61118 -41.36551,-31.9947 -17.13798,-28.07724 -21.02334,-57.99933 -11.65459,-89.76606 5.03735,-17.44505 13.2667,-33.20425 24.68716,-47.27695 a 275.75608,275.09111 8.8433741 0 1 23.46861,-24.91454 577.26018,575.86814 8.8433741 0 0 50.5017,-48.52276 c 19.60653,-23.81424 31.74719,-50.99188 36.42225,-81.534365 z"
     style="opacity:0.972;fill:#000000;fill-opacity:1;stroke-width:0.743692"
     id="path3" />
</svg>
